<?xml version="1.0" encoding="utf-8"?>
<!-- Generator: Adobe Illustrator 25.0.1, SVG Export Plug-In . SVG Version: 6.00 Build 0)  -->
<svg version="1.1" id="Layer_1" xmlns="http://www.w3.org/2000/svg" xmlns:xlink="http://www.w3.org/1999/xlink" x="0px" y="0px"
	 viewBox="0 0 384 512" style="enable-background:new 0 0 384 512;" xml:space="preserve">
<style type="text/css">
	.st0{fill:#47C0C2;}
</style>
<g>
	<circle class="st0" cx="249" cy="199" r="28.5"/>
	<circle class="st0" cx="135" cy="199" r="28.5"/>
	<path class="st0" d="M192,0C86,0,0,86,0,192v270.2C0,472,8,480,17.8,480c4,0,7.9-1.4,11.1-3.9l11.2-9c13.4-10.7,32.8-9,44.1,3.9
		l30.5,35c3.4,3.8,8.2,6,13.3,6c5.1,0,10-2.2,13.3-6l26.6-30.5c12.8-14.6,35.5-14.6,48.2,0l26.6,30.5c3.4,3.8,8.2,6,13.3,6
		s10-2.2,13.3-6l30.5-35c11.3-12.9,30.7-14.6,44.1-3.9l11.2,9c3.2,2.5,7.1,3.9,11.1,3.9c9.8,0,17.8-8,17.8-17.8V192
		C384,86,298,0,192,0z M363,439.6c0,8.7-7.1,15.9-15.9,15.9c-3.6,0-7-1.2-9.9-3.5l-10-8c-11.9-9.5-29.2-8-39.3,3.5l-27.2,31.2
		c-2.9,3.4-7.3,5.3-11.8,5.3s-8.8-2-11.8-5.3l-23.7-27.2c-11.3-13-31.5-13-42.9,0l-23.7,27.2c-2.9,3.4-7.3,5.3-11.8,5.3
		s-8.8-2-11.8-5.3L96,447.5c-10.1-11.5-27.3-13-39.3-3.5l-10,8c-2.9,2.2-6.3,3.5-9.9,3.5c-8.7,0-15.9-7.1-15.9-15.9V199
		c0-94.4,76.6-171,171-171s171,76.6,171,171V439.6z"/>
</g>
</svg>
