<?xml version="1.0" encoding="utf-8"?>
<!-- Generator: Adobe Illustrator 25.0.1, SVG Export Plug-In . SVG Version: 6.00 Build 0)  -->
<svg version="1.1" id="Layer_1" xmlns="http://www.w3.org/2000/svg" xmlns:xlink="http://www.w3.org/1999/xlink" x="0px" y="0px"
	 viewBox="0 0 512 512" style="enable-background:new 0 0 512 512;" xml:space="preserve">
<style type="text/css">
	.st0{fill:#F79999;}
</style>
<path class="st0" d="M64,32C28.7,32,0,60.7,0,96s28.7,64,64,64h1c3.7,88.9,77,160,167,160h56V128h-24H88.8H64c-17.7,0-32-14.3-32-32
	s14.3-32,32-32h400c8.8,0,16-7.2,16-16s-7.2-16-16-16H64z M224,456c0,13.3,10.7,24,24,24h72v-72.2l-64.1-22.4
	c-12.5-4.4-26.2,2.2-30.6,14.7s2.2,26.2,14.7,30.6l4.5,1.6C233,433.9,224,443.9,224,456z M352,479.3c36.4-3.3,69.5-17.6,96.1-39.6
	l-86.5-34.6c-3,1.8-6.2,3.2-9.6,4.3V479.3L352,479.3z M472.6,415c24.6-30.3,39.4-68.9,39.4-111c0-12.3-1.3-24.3-3.7-35.9l-125.5,87
	c0.8,3.4,1.2,7,1.2,10.6c0,4.6-0.7,9-1.9,13.1L472.6,415z M336,128h-16v192h18.3c9.9,0,19.1,3.2,26.6,8.5l133.5-92.4
	C471.8,172.6,409.1,128,336,128z M168,192c0-13.3,10.7-24,24-24s24,10.7,24,24s-10.7,24-24,24S168,205.3,168,192z"/>
</svg>
